<?xml version="1.0" standalone="no"?>
<!DOCTYPE svg PUBLIC "-//W3C//DTD SVG 20010904//EN"
 "http://www.w3.org/TR/2001/REC-SVG-20010904/DTD/svg10.dtd">
<svg version="1.0" xmlns="http://www.w3.org/2000/svg"
 width="500.000000pt" height="500.000000pt" viewBox="0 0 500.000000 500.000000"
 preserveAspectRatio="xMidYMid meet">
<metadata>
Created by potrace 1.11, written by Peter Selinger 2001-2013
</metadata>
<g transform="translate(0.000000,500.000000) scale(0.100000,-0.100000)"
fill="#000000" stroke="none">
<path d="M0 3335 l0 -1665 2500 0 2500 0 0 1665 0 1665 -2500 0 -2500 0 0
-1665z m2598 903 l57 -3 -42 -30 c-47 -33 -50 -43 -28 -104 8 -22 12 -41 9
-41 -3 0 -25 14 -49 31 l-43 31 -45 -31 c-25 -17 -48 -31 -51 -31 -3 0 4 25
14 55 l19 55 -47 32 -47 33 59 5 c59 5 59 5 73 45 7 22 16 47 19 55 4 9 14 -6
26 -42 l19 -57 57 -3z m-518 -125 c32 19 36 14 20 -27 -8 -22 -5 -28 23 -50
l32 -26 -40 0 c-38 0 -42 -3 -55 -37 l-13 -38 -12 35 c-10 31 -16 36 -53 40
l-42 5 31 20 c27 18 30 24 24 58 l-5 38 30 -17 c29 -18 31 -18 60 -1z m885
-13 c3 5 15 15 27 21 19 10 20 9 14 -28 -6 -35 -5 -40 26 -58 l33 -20 -42 -3
c-38 -3 -43 -6 -54 -40 l-13 -37 -14 38 c-14 34 -18 37 -54 37 l-40 0 32 26
c31 26 31 32 12 83 -4 10 5 8 30 -7 23 -14 39 -19 43 -12z m-423 -207 c51 -52
105 -146 129 -223 26 -82 29 -221 6 -305 -23 -85 -12 -81 15 6 31 99 31 245 0
339 l-22 65 23 43 c12 23 25 42 28 42 9 0 47 -106 60 -170 22 -107 -5 -273
-61 -367 -11 -18 -17 -33 -14 -33 2 0 27 18 55 40 99 78 243 130 362 130 l58
0 -20 -29 c-18 -25 -28 -29 -89 -34 -89 -9 -181 -39 -263 -87 -95 -56 -100
-71 -9 -27 105 51 200 70 320 64 93 -4 204 -29 215 -48 9 -13 -49 -117 -95
-171 -45 -52 -151 -125 -220 -152 -25 -10 -74 -24 -110 -31 -57 -12 -60 -13
-25 -14 101 -2 227 43 330 118 46 33 78 41 98 22 11 -10 -49 -65 -118 -106
-90 -54 -183 -79 -290 -79 -137 0 -237 35 -347 120 l-57 45 -53 -41 c-184
-146 -436 -166 -633 -51 -62 36 -137 100 -130 111 14 23 55 15 97 -18 85 -67
194 -110 302 -117 l71 -5 -70 15 c-104 22 -220 83 -291 153 -59 60 -125 156
-128 189 -2 25 101 54 214 60 121 6 218 -13 322 -65 85 -41 81 -26 -5 26 -73
44 -183 81 -267 88 -60 6 -71 10 -89 35 l-22 29 58 0 c114 0 260 -51 355 -123
68 -52 74 -54 51 -16 -33 53 -61 148 -68 229 -8 84 10 188 45 267 l21 47 26
-43 c25 -43 25 -44 9 -94 -41 -127 -41 -274 0 -377 22 -55 25 -47 8 20 -18 70
-18 210 1 280 21 79 68 168 120 228 26 28 50 52 54 52 4 0 23 -17 43 -37z
m-722 -113 c4 -8 22 -17 41 -20 l34 -6 -34 -18 c-32 -17 -33 -20 -27 -59 l7
-42 -30 29 c-29 28 -31 28 -55 12 -39 -25 -49 -20 -30 15 15 30 15 32 -13 61
l-28 30 39 -4 c35 -4 39 -2 54 30 16 33 17 33 25 10 5 -13 12 -30 17 -38z
m1457 -3 l38 6 -28 -31 c-28 -29 -28 -31 -13 -61 19 -35 16 -37 -24 -16 -27
14 -30 13 -58 -10 l-30 -25 5 39 c5 37 3 40 -28 57 -29 15 -31 19 -14 21 56
10 65 14 65 32 0 11 3 27 7 37 5 13 10 10 25 -19 17 -34 20 -35 55 -30z m-728
-821 c138 -101 206 -116 524 -116 136 0 247 -4 247 -8 0 -5 -9 -18 -20 -30
-20 -21 -28 -22 -225 -22 -299 0 -402 19 -516 96 -28 19 -53 34 -56 34 -2 0
-34 -18 -71 -40 -123 -75 -163 -82 -450 -88 -253 -4 -253 -4 -278 19 -13 12
-24 26 -24 30 0 4 123 9 273 11 314 4 346 11 472 97 39 27 72 49 74 50 2 0 24
-14 50 -33z m679 -238 c-7 -19 -1449 -19 -1455 0 -4 9 146 12 727 12 581 0
731 -3 728 -12z m-107 -98 c-23 -19 -41 -20 -621 -20 -580 0 -598 1 -621 20
-24 19 -22 19 621 19 643 0 645 0 621 -19z m-107 -68 c3 -5 -15 -18 -40 -30
-44 -22 -53 -22 -475 -22 -412 0 -431 1 -469 20 -22 11 -40 25 -40 30 0 12
1016 14 1024 2z m-214 -103 c-89 -32 -242 -52 -351 -45 -83 5 -282 46 -297 61
-3 3 154 5 349 4 l354 0 -55 -20z"/>
<path d="M710 1390 c0 -100 3 -120 15 -120 12 0 15 18 15 103 l1 102 35 -67
c19 -38 39 -68 44 -68 5 0 25 30 44 68 l35 67 1 -102 c0 -85 3 -103 15 -103
13 0 15 20 15 120 0 119 0 120 -23 120 -19 0 -29 -12 -52 -60 -16 -33 -32 -60
-35 -60 -3 0 -19 27 -35 60 -23 48 -33 60 -52 60 -23 0 -23 -1 -23 -120z"/>
<path d="M1070 1390 l0 -120 80 0 c64 0 80 3 80 15 0 12 -14 15 -65 15 l-65 0
0 45 0 45 65 0 c51 0 65 3 65 15 0 12 -14 15 -65 15 l-65 0 0 30 0 30 65 0
c51 0 65 3 65 15 0 12 -16 15 -80 15 l-80 0 0 -120z"/>
<path d="M1360 1390 l0 -120 80 0 c64 0 80 3 80 15 0 12 -14 15 -65 15 l-65 0
0 45 0 45 65 0 c51 0 65 3 65 15 0 12 -14 15 -65 15 l-65 0 0 30 0 30 65 0
c51 0 65 3 65 15 0 12 -16 15 -80 15 l-80 0 0 -120z"/>
<path d="M1620 1495 c0 -11 12 -15 45 -15 l45 0 0 -105 c0 -87 3 -105 15 -105
12 0 15 18 15 105 l0 105 45 0 c33 0 45 4 45 15 0 12 -18 15 -105 15 -87 0
-105 -3 -105 -15z"/>
<path d="M2548 1452 l-48 -16 0 -503 0 -503 55 0 55 0 0 254 0 255 71 35 c113
57 176 49 225 -29 17 -26 19 -55 22 -272 l4 -243 55 0 54 0 -3 257 -3 258 -27
47 c-42 70 -86 93 -178 93 -63 -1 -86 -6 -144 -33 -37 -18 -70 -32 -72 -32 -2
0 -4 101 -4 225 0 124 -3 225 -7 224 -5 0 -29 -8 -55 -17z"/>
<path d="M2183 1283 l-43 -15 0 -94 0 -94 -35 0 c-32 0 -35 -2 -35 -30 0 -28
3 -30 35 -30 l34 0 3 -249 c3 -234 4 -251 24 -278 29 -40 99 -73 156 -73 47 0
48 1 48 30 0 27 -3 30 -31 30 -20 0 -40 10 -60 29 l-29 29 0 241 0 241 60 0
60 0 0 30 0 30 -60 0 -60 0 0 110 c0 121 2 118 -67 93z"/>
<path d="M903 1090 c-61 -13 -134 -47 -165 -77 l-28 -27 0 -432 0 -431 43 -17
c23 -9 46 -16 50 -16 4 0 7 83 7 183 0 101 3 186 6 189 3 4 29 -4 57 -17 193
-86 366 15 397 232 24 170 -38 341 -143 395 -47 24 -155 33 -224 18z m165 -87
c15 -10 38 -41 52 -69 23 -44 25 -61 25 -174 0 -113 -2 -130 -25 -174 -36 -71
-67 -91 -144 -91 -46 0 -74 6 -111 26 l-50 25 -3 212 -2 211 25 17 c69 45 183
54 233 17z"/>
<path d="M1447 1081 l-48 -15 3 -266 c3 -260 3 -266 26 -295 48 -61 87 -80
176 -83 75 -4 108 2 215 34 l24 7 -5 -84 c-3 -51 -11 -97 -21 -116 -23 -43
-87 -79 -167 -94 -36 -6 -69 -15 -73 -19 -4 -4 -3 -19 3 -35 10 -27 13 -28 63
-22 110 12 211 62 254 125 38 57 43 116 43 497 l0 365 -50 0 -50 0 -2 -267 -3
-267 -48 -25 c-100 -51 -217 -33 -262 41 -18 30 -20 57 -25 284 l-5 250 -48
-15z"/>
<path d="M3336 1084 c-59 -19 -132 -88 -165 -159 -33 -69 -40 -192 -16 -282
16 -60 63 -137 104 -171 76 -63 213 -75 308 -26 244 125 222 548 -34 640 -50
17 -136 16 -197 -2z m139 -65 c52 -14 100 -61 122 -118 22 -57 24 -214 4 -284
-27 -92 -111 -149 -197 -132 -52 9 -105 66 -127 134 -20 61 -23 214 -6 274 14
51 64 104 114 122 49 17 42 17 90 4z"/>
<path d="M4065 1093 c-59 -12 -126 -38 -172 -66 l-53 -31 0 -283 0 -283 55 0
55 0 2 278 3 277 37 18 c100 49 212 24 248 -55 18 -39 20 -67 20 -280 l0 -238
55 0 55 0 0 253 c0 138 -5 268 -10 287 -13 46 -64 95 -119 115 -40 14 -130 18
-176 8z"/>
</g>
</svg>
