<?xml version="1.0" encoding="UTF-8" standalone="no"?>
<!-- Created with Inkscape (http://www.inkscape.org/) -->

<svg
   xmlns:dc="http://purl.org/dc/elements/1.1/"
   xmlns:cc="http://creativecommons.org/ns#"
   xmlns:rdf="http://www.w3.org/1999/02/22-rdf-syntax-ns#"
   xmlns:svg="http://www.w3.org/2000/svg"
   xmlns="http://www.w3.org/2000/svg"
   xmlns:sodipodi="http://sodipodi.sourceforge.net/DTD/sodipodi-0.dtd"
   xmlns:inkscape="http://www.inkscape.org/namespaces/inkscape"
   width="300"
   height="200"
   viewBox="0 0 300 200"
   id="svg2"
   version="1.1"
   inkscape:version="0.91 r13725"
   sodipodi:docname="function.svg">
  <defs
     id="defs4" />
  <sodipodi:namedview
     id="base"
     pagecolor="#ffffff"
     bordercolor="#666666"
     borderopacity="1.0"
     inkscape:pageopacity="0.0"
     inkscape:pageshadow="2"
     inkscape:zoom="3.959798"
     inkscape:cx="131.14176"
     inkscape:cy="132.61947"
     inkscape:document-units="px"
     inkscape:current-layer="layer1"
     showgrid="false"
     units="px"
     inkscape:window-width="1536"
     inkscape:window-height="801"
     inkscape:window-x="-8"
     inkscape:window-y="-8"
     inkscape:window-maximized="1" />
  <metadata
     id="metadata7">
    <rdf:RDF>
      <cc:Work
         rdf:about="">
        <dc:format>image/svg+xml</dc:format>
        <dc:type
           rdf:resource="http://purl.org/dc/dcmitype/StillImage" />
        <dc:title></dc:title>
      </cc:Work>
    </rdf:RDF>
  </metadata>
  <g
     inkscape:label="Layer 1"
     inkscape:groupmode="layer"
     id="layer1"
     transform="translate(0,-852.36216)">
    <g
       style="font-style:normal;font-weight:normal;font-size:40px;line-height:125%;font-family:sans-serif;letter-spacing:0px;word-spacing:0px;fill:#000000;fill-opacity:1;stroke:none;stroke-width:1px;stroke-linecap:butt;stroke-linejoin:miter;stroke-opacity:1"
       id="text4158"
       transform="translate(-1.0101525,1.3258253)">
      <path
         d="m 83.902603,958.43604 -2.282715,0 0,-1.45264 q -0.305175,0.20752 -0.830078,0.58594 -0.512695,0.36621 -1.000976,0.58593 -0.573731,0.28077 -1.31836,0.46387 -0.744629,0.19531 -1.745605,0.19531 -1.843262,0 -3.125,-1.2207 -1.281739,-1.2207 -1.281739,-3.11279 0,-1.5503 0.65918,-2.50244 0.671387,-0.96436 1.904297,-1.51368 1.245117,-0.54931 2.990723,-0.74463 1.745605,-0.19531 3.747558,-0.29296 l 0,-0.35401 q 0,-0.78125 -0.280761,-1.29394 -0.268555,-0.5127 -0.78125,-0.80567 -0.488282,-0.28076 -1.171875,-0.37842 -0.683594,-0.0976 -1.428223,-0.0976 -0.90332,0 -2.01416,0.24414 -1.11084,0.23193 -2.294922,0.68359 l -0.12207,0 0,-2.33154 q 0.671386,-0.18311 1.940918,-0.40283 1.269531,-0.21973 2.502441,-0.21973 1.44043,0 2.502441,0.24414 1.074219,0.23194 1.855469,0.80567 0.769043,0.56152 1.171875,1.45263 0.402832,0.89112 0.402832,2.20948 l 0,9.25293 z m -2.282715,-3.35694 0,-3.79639 q -1.049804,0.061 -2.478027,0.18311 -1.416016,0.12207 -2.246094,0.354 -0.988769,0.28077 -1.599121,0.87891 -0.610351,0.58594 -0.610351,1.62354 0,1.17187 0.708007,1.77002 0.708008,0.58593 2.160645,0.58593 1.208496,0 2.209473,-0.46386 1.000976,-0.47608 1.855468,-1.13526 z"
         style="font-size:25px"
         id="path4300"
         inkscape:connector-curvature="0" />
      <path
         d="m 99.405533,958.43604 -2.294922,0 0,-1.42823 q -0.98877,0.85449 -2.062988,1.33057 -1.074219,0.47607 -2.331543,0.47607 -2.441407,0 -3.881836,-1.87988 -1.428223,-1.87988 -1.428223,-5.2124 0,-1.7334 0.488281,-3.08838 0.500489,-1.35498 1.342774,-2.30713 0.830078,-0.92773 1.928711,-1.41602 1.11084,-0.48828 2.294922,-0.48828 1.074218,0 1.904296,0.23194 0.830079,0.21972 1.745606,0.6958 l 0,-5.90821 2.294922,0 0,18.99415 z m -2.294922,-3.35694 0,-7.82471 q -0.927734,-0.41503 -1.660156,-0.57373 -0.732422,-0.15869 -1.599121,-0.15869 -1.928711,0 -3.00293,1.34278 -1.074219,1.34277 -1.074219,3.80859 0,2.4292 0.830078,3.69873 0.830078,1.25732 2.661133,1.25732 0.976563,0 1.977539,-0.42724 1.000977,-0.43945 1.867676,-1.12305 z"
         style="font-size:25px"
         id="path4302"
         inkscape:connector-curvature="0" />
      <path
         d="m 114.9817,958.43604 -2.29492,0 0,-1.42823 q -0.98877,0.85449 -2.06299,1.33057 -1.07421,0.47607 -2.33154,0.47607 -2.4414,0 -3.88183,-1.87988 -1.42823,-1.87988 -1.42823,-5.2124 0,-1.7334 0.48828,-3.08838 0.50049,-1.35498 1.34278,-2.30713 0.83008,-0.92773 1.92871,-1.41602 1.11084,-0.48828 2.29492,-0.48828 1.07422,0 1.9043,0.23194 0.83008,0.21972 1.7456,0.6958 l 0,-5.90821 2.29492,0 0,18.99415 z m -2.29492,-3.35694 0,-7.82471 q -0.92773,-0.41503 -1.66015,-0.57373 -0.73243,-0.15869 -1.59912,-0.15869 -1.92872,0 -3.00293,1.34278 -1.07422,1.34277 -1.07422,3.80859 0,2.4292 0.83008,3.69873 0.83007,1.25732 2.66113,1.25732 0.97656,0 1.97754,-0.42724 1.00097,-0.43945 1.86767,-1.12305 z"
         style="font-size:25px"
         id="path4304"
         inkscape:connector-curvature="0" />
      <path
         d="m 126.79811,963.46533 -2.79541,0 q -2.16064,-2.47803 -3.35693,-5.40771 -1.19629,-2.92969 -1.19629,-6.60401 0,-3.67431 1.19629,-6.604 1.19629,-2.92969 3.35693,-5.40772 l 2.79541,0 0,0.12207 q -0.98877,0.89112 -1.89209,2.06299 -0.89111,1.15967 -1.66016,2.70996 -0.73242,1.50147 -1.19628,3.30811 -0.45166,1.80664 -0.45166,3.80859 0,2.08741 0.43945,3.8208 0.45166,1.7334 1.20849,3.2959 0.73243,1.50147 1.67237,2.70996 0.93994,1.22071 1.87988,2.06299 l 0,0.12207 z"
         style="font-size:25px"
         id="path4306"
         inkscape:connector-curvature="0" />
      <path
         d="m 172.91628,951.45361 q 0,3.67432 -1.19629,6.60401 -1.19629,2.92968 -3.35694,5.40771 l -2.79541,0 0,-0.12207 q 0.93994,-0.84228 1.87989,-2.06299 0.95214,-1.20849 1.67236,-2.70996 0.75683,-1.5625 1.19629,-3.2959 0.45166,-1.73339 0.45166,-3.8208 0,-2.00195 -0.45166,-3.80859 -0.45166,-1.80664 -1.19629,-3.30811 -0.76904,-1.55029 -1.67236,-2.70996 -0.89112,-1.17187 -1.87989,-2.06299 l 0,-0.12207 2.79541,0 q 2.16065,2.47803 3.35694,5.40772 1.19629,2.92969 1.19629,6.604 z"
         style="font-size:25px"
         id="path4308"
         inkscape:connector-curvature="0" />
    </g>
    <path
       style="fill:#7895ca;fill-opacity:1;fill-rule:evenodd;stroke:none;stroke-width:1px;stroke-linecap:butt;stroke-linejoin:miter;stroke-opacity:1"
       d="m 210.30912,1010.0056 c -0.41574,-20.68248 -12.29677,-24.80852 -24.35276,-29.59032 -8.12301,-3.2219 -26.49752,-7.6378 -26.91249,-14.2252 l -23.73859,0 c -0.19283,16.3886 16.77372,21.75504 31.78378,25.72534 12.32728,3.2607 19.41458,4.9294 20.14345,17.90898 z"
       id="path4138-1"
       inkscape:connector-curvature="0"
       sodipodi:nodetypes="csccscc" />
    <rect
       style="fill:#37558c;fill-opacity:1;stroke:none;stroke-width:2.20000005;stroke-linejoin:round;stroke-miterlimit:4;stroke-dasharray:none;stroke-dashoffset:0;stroke-opacity:0.49404764"
       id="rect4156-4-7"
       width="30.124807"
       height="11.409987"
       x="182.98363"
       y="1003.0453"
       ry="5.7049937" />
    <rect
       style="fill:#1a1a66;fill-opacity:1;stroke:none;stroke-width:2.20000005;stroke-linejoin:round;stroke-miterlimit:4;stroke-dasharray:none;stroke-dashoffset:0;stroke-opacity:0.49404764"
       id="rect4156-7"
       width="46.214478"
       height="13.131983"
       x="-221.12492"
       y="-1021.3915"
       ry="3.440979"
       transform="scale(-1,-1)" />
    <circle
       style="fill:#00003d;fill-opacity:1;stroke:none;stroke-width:2.20000005;stroke-linejoin:round;stroke-miterlimit:4;stroke-dasharray:none;stroke-dashoffset:0;stroke-opacity:0.49404764"
       id="path4179-7"
       cx="-208.13098"
       cy="-1005.9649"
       r="1.4836615"
       transform="scale(-1,-1)" />
    <circle
       style="fill:#00003d;fill-opacity:1;stroke:none;stroke-width:2.20000005;stroke-linejoin:round;stroke-miterlimit:4;stroke-dasharray:none;stroke-dashoffset:0;stroke-opacity:0.49404764"
       id="path4179-4-9"
       cx="-201.5321"
       cy="-1006.0173"
       r="1.4836615"
       transform="scale(-1,-1)" />
    <circle
       style="fill:#00003d;fill-opacity:1;stroke:none;stroke-width:2.20000005;stroke-linejoin:round;stroke-miterlimit:4;stroke-dasharray:none;stroke-dashoffset:0;stroke-opacity:0.49404764"
       id="path4179-9-6"
       cx="-195.14336"
       cy="-1006.0173"
       r="1.4836615"
       transform="scale(-1,-1)" />
    <circle
       style="fill:#00003d;fill-opacity:1;stroke:none;stroke-width:2.20000005;stroke-linejoin:round;stroke-miterlimit:4;stroke-dasharray:none;stroke-dashoffset:0;stroke-opacity:0.49404764"
       id="path4179-2-8"
       cx="-188.37834"
       cy="-1005.9133"
       r="1.4836615"
       transform="scale(-1,-1)" />
    <g
       style="font-style:normal;font-weight:normal;font-size:40px;line-height:125%;font-family:sans-serif;letter-spacing:0px;word-spacing:0px;fill:#000000;fill-opacity:1;stroke:none;stroke-width:1px;stroke-linecap:butt;stroke-linejoin:miter;stroke-opacity:1"
       id="text4247">
      <path
         d="m 66.771587,877.00507 -11.074218,0 0,-2.29615 q 1.153564,-0.98877 2.307129,-1.97754 1.16455,-0.98877 2.164306,-1.96655 2.109375,-2.04346 2.889404,-3.24097 0.78003,-1.20849 0.78003,-2.60376 0,-1.27441 -0.845948,-1.98852 -0.83496,-0.7251 -2.340087,-0.7251 -0.999756,0 -2.164307,0.35156 -1.164551,0.35157 -2.27417,1.07666 l -0.109863,0 0,-2.30712 q 0.780029,-0.38453 2.076416,-0.70313 1.307373,-0.3186 2.526855,-0.3186 2.515869,0 3.944092,1.21948 1.428223,1.2085 1.428223,3.28491 0,0.93384 -0.2417,1.74683 -0.230712,0.802 -0.692138,1.5271 -0.428467,0.68115 -1.010742,1.34033 -0.571289,0.65918 -1.395264,1.46118 -1.175537,1.15357 -2.427979,2.24121 -1.252441,1.07666 -2.340087,1.99951 l 8.800048,0 0,1.87867 z"
         style="font-size:22.5px"
         id="path4289" />
      <path
         d="m 73.660015,877.00507 -2.625732,0 0,-3.13111 2.625732,0 0,3.13111 z"
         style="font-size:22.5px"
         id="path4291" />
      <path
         d="m 89.645123,872.40179 -2.427979,0 0,4.60328 -2.109375,0 0,-4.60328 -7.833252,0 0,-2.52685 7.921143,-9.22852 2.021484,0 0,9.99756 2.427979,0 0,1.75781 z m -4.537354,-1.75781 0,-7.38281 -6.339111,7.38281 6.339111,0 z"
         style="font-size:22.5px"
         id="path4293" />
      <path
         d="m 97.07188,873.87396 -3.098144,7.19605 -1.604004,0 1.911621,-7.19605 2.790527,0 z"
         style="font-size:22.5px"
         id="path4295" />
      <path
         d="m 119.68174,877.00507 -11.07422,0 0,-2.29615 q 1.15357,-0.98877 2.30713,-1.97754 1.16455,-0.98877 2.16431,-1.96655 2.10938,-2.04346 2.8894,-3.24097 0.78003,-1.20849 0.78003,-2.60376 0,-1.27441 -0.84594,-1.98852 -0.83496,-0.7251 -2.34009,-0.7251 -0.99976,0 -2.16431,0.35156 -1.16455,0.35157 -2.27417,1.07666 l -0.10986,0 0,-2.30712 q 0.78003,-0.38453 2.07642,-0.70313 1.30737,-0.3186 2.52685,-0.3186 2.51587,0 3.94409,1.21948 1.42822,1.2085 1.42822,3.28491 0,0.93384 -0.24169,1.74683 -0.23072,0.802 -0.69214,1.5271 -0.42847,0.68115 -1.01075,1.34033 -0.57128,0.65918 -1.39526,1.46118 -1.17554,1.15357 -2.42798,2.24121 -1.25244,1.07666 -2.34009,1.99951 l 8.80005,0 0,1.87867 z"
         style="font-size:22.5px"
         id="path4297" />
    </g>
    <g
       style="font-style:normal;font-weight:normal;font-size:22.5px;line-height:125%;font-family:sans-serif;letter-spacing:0px;word-spacing:0px;fill:#000000;fill-opacity:1;stroke:none;stroke-width:1px;stroke-linecap:butt;stroke-linejoin:miter;stroke-opacity:1"
       id="text4251">
      <path
         d="m 195.00227,1038.4731 -2.42797,0 0,4.6033 -2.10938,0 0,-4.6033 -7.83325,0 0,-2.5268 7.92114,-9.2285 2.02149,0 0,9.9975 2.42797,0 0,1.7578 z m -4.53735,-1.7578 0,-7.3828 -6.33911,7.3828 6.33911,0 z"
         style=""
         id="path4311" />
      <path
         d="m 201.51717,1043.0764 -2.62574,0 0,-3.1311 2.62574,0 0,3.1311 z"
         style=""
         id="path4313" />
      <path
         d="m 217.50227,1038.4731 -2.42797,0 0,4.6033 -2.10938,0 0,-4.6033 -7.83325,0 0,-2.5268 7.92114,-9.2285 2.02149,0 0,9.9975 2.42797,0 0,1.7578 z m -4.53735,-1.7578 0,-7.3828 -6.33911,7.3828 6.33911,0 z"
         style=""
         id="path4315" />
    </g>
    <path
       style="fill:#7895ca;fill-opacity:1;fill-rule:evenodd;stroke:none;stroke-width:1px;stroke-linecap:butt;stroke-linejoin:miter;stroke-opacity:1"
       d="m 81.539897,895.85873 c 0.41574,20.68244 12.29677,24.80848 24.352753,29.59028 8.12301,3.2219 26.49752,7.6378 26.91249,14.2252 l 23.73859,0 c 0.19283,-16.3886 -16.77372,-21.75504 -31.78378,-25.72534 -12.32728,-3.2607 -19.41458,-4.9294 -20.14345,-17.90894 z"
       id="path4138-1-7"
       inkscape:connector-curvature="0"
       sodipodi:nodetypes="csccscc" />
    <rect
       style="fill:#37558c;fill-opacity:1;stroke:none;stroke-width:2.20000005;stroke-linejoin:round;stroke-miterlimit:4;stroke-dasharray:none;stroke-dashoffset:0;stroke-opacity:0.49404764"
       id="rect4156-4-7-6"
       width="30.124807"
       height="11.409987"
       x="-108.86539"
       y="-902.81903"
       ry="5.7049937"
       transform="scale(-1,-1)" />
    <rect
       style="fill:#1a1a66;fill-opacity:1;stroke:none;stroke-width:2.20000005;stroke-linejoin:round;stroke-miterlimit:4;stroke-dasharray:none;stroke-dashoffset:0;stroke-opacity:0.49404764"
       id="rect4156-7-8"
       width="46.214478"
       height="13.131983"
       x="70.724091"
       y="884.47284"
       ry="3.440979" />
    <circle
       style="fill:#00003d;fill-opacity:1;stroke:none;stroke-width:2.20000005;stroke-linejoin:round;stroke-miterlimit:4;stroke-dasharray:none;stroke-dashoffset:0;stroke-opacity:0.49404764"
       id="path4179-7-7"
       cx="83.718033"
       cy="899.89941"
       r="1.4836615" />
    <circle
       style="fill:#00003d;fill-opacity:1;stroke:none;stroke-width:2.20000005;stroke-linejoin:round;stroke-miterlimit:4;stroke-dasharray:none;stroke-dashoffset:0;stroke-opacity:0.49404764"
       id="path4179-4-9-2"
       cx="90.31691"
       cy="899.84705"
       r="1.4836615" />
    <circle
       style="fill:#00003d;fill-opacity:1;stroke:none;stroke-width:2.20000005;stroke-linejoin:round;stroke-miterlimit:4;stroke-dasharray:none;stroke-dashoffset:0;stroke-opacity:0.49404764"
       id="path4179-9-6-4"
       cx="96.705658"
       cy="899.84705"
       r="1.4836615" />
    <circle
       style="fill:#00003d;fill-opacity:1;stroke:none;stroke-width:2.20000005;stroke-linejoin:round;stroke-miterlimit:4;stroke-dasharray:none;stroke-dashoffset:0;stroke-opacity:0.49404764"
       id="path4179-2-8-5"
       cx="103.47066"
       cy="899.95105"
       r="1.4836615" />
  </g>
</svg>
